<?xml version="1.0" standalone="no"?>
<!DOCTYPE svg PUBLIC "-//W3C//DTD SVG 20010904//EN"
 "http://www.w3.org/TR/2001/REC-SVG-20010904/DTD/svg10.dtd">
<svg version="1.0" xmlns="http://www.w3.org/2000/svg"
 width="2880.000000pt" height="1620.000000pt" viewBox="0 0 2880.000000 1620.000000"
 preserveAspectRatio="xMidYMid meet">

<g transform="translate(0.000000,1620.000000) scale(0.100000,-0.100000)"
fill="#000000" stroke="none">
<path d="M4720 10320 l0 -240 6313 0 6312 0 161 228 c88 125 164 233 168 240
6 9 -1292 12 -6473 12 l-6481 0 0 -240z"/>
<path d="M18311 9318 c1 -365 4 -674 8 -688 l7 -25 229 0 230 0 3 688 2 687
-240 0 -240 0 1 -662z"/>
<path d="M4720 8105 l0 -1685 818 0 c892 0 877 -1 986 58 69 37 177 141 231
222 149 224 211 595 150 890 -46 224 -157 443 -272 540 l-39 32 66 67 c137
137 196 299 207 571 21 495 -187 890 -512 975 -51 13 -172 15 -847 15 l-788 0
0 -1685z m1322 1247 c50 -21 114 -90 142 -152 40 -88 56 -192 56 -356 0 -274
-55 -420 -180 -478 -42 -20 -66 -21 -367 -24 l-323 -4 0 517 0 516 323 -3
c219 -3 331 -7 349 -16z m43 -1451 c83 -38 151 -138 192 -281 26 -93 26 -396
-1 -490 -38 -140 -108 -245 -182 -276 -26 -11 -108 -14 -379 -14 l-345 0 0
540 0 540 338 0 c305 0 341 -2 377 -19z"/>
<path d="M7300 8105 l0 -1685 1070 0 1070 0 0 210 0 210 -745 0 -745 0 0 1475
0 1475 -325 0 -325 0 0 -1685z"/>
<path d="M10140 8128 c-189 -915 -345 -1673 -348 -1686 l-4 -22 328 2 329 3
37 265 c20 146 42 302 48 348 l12 82 369 0 369 0 5 -22 c2 -13 25 -158 50
-323 25 -165 48 -312 51 -327 l6 -28 325 0 325 0 -5 23 c-4 12 -160 760 -347
1662 -188 902 -343 1650 -347 1663 l-5 22 -427 0 -427 0 -344 -1662z m805
1220 c3 -13 63 -412 135 -888 71 -476 132 -875 135 -887 l5 -23 -305 0 c-237
0 -305 3 -305 13 0 6 61 414 135 905 74 492 135 895 135 898 0 2 13 4 30 4 23
0 31 -5 35 -22z"/>
<path d="M12973 9775 c-69 -19 -115 -43 -189 -98 -140 -106 -239 -286 -295
-534 -22 -96 -23 -113 -26 -963 -3 -570 -1 -903 6 -975 27 -276 111 -478 260
-625 44 -44 100 -87 132 -103 116 -58 102 -57 887 -57 l722 0 -2 208 -3 207
-581 5 -581 5 -41 28 c-68 48 -125 148 -159 282 -17 65 -18 136 -18 950 0 873
1 881 22 957 48 169 131 275 232 297 35 7 230 11 591 11 l540 0 0 210 0 210
-722 -1 c-590 0 -733 -3 -775 -14z"/>
<path d="M14890 8105 l0 -1685 330 0 330 0 0 786 0 785 22 -3 c19 -2 90 -135
423 -785 l400 -783 358 0 c197 0 357 3 355 8 -34 74 -151 300 -527 1017 -248
473 -451 863 -451 867 0 5 218 329 484 721 266 392 488 723 495 735 l12 22
-337 -2 -337 -3 -427 -635 c-317 -471 -433 -636 -449 -638 l-21 -3 0 640 0
641 -330 0 -330 0 0 -1685z"/>
<path d="M17963 9776 c-212 -52 -398 -268 -472 -549 -45 -173 -46 -196 -46
-1137 0 -996 -1 -977 69 -1183 83 -241 252 -420 447 -472 81 -22 1109 -22
1192 0 267 70 463 358 506 748 15 131 15 1703 0 1834 -16 144 -53 275 -113
398 -79 160 -173 262 -300 323 -57 28 -143 52 -186 52 -19 0 -20 -24 -22
-1302 -3 -1218 -4 -1307 -21 -1363 -40 -136 -101 -226 -178 -266 -35 -17 -61
-19 -284 -19 -224 0 -249 2 -284 19 -75 39 -140 141 -178 281 -17 61 -18 144
-16 1358 l2 1292 -32 -1 c-18 0 -55 -6 -84 -13z"/>
<path d="M20010 8493 c0 -816 4 -1322 10 -1363 25 -164 69 -295 138 -415 46
-79 162 -192 238 -232 117 -62 125 -63 701 -63 342 0 540 4 575 11 102 21 176
65 268 158 96 96 158 202 203 347 57 181 57 178 57 1573 l0 1281 -315 0 -315
0 0 -1270 c0 -1119 -2 -1280 -16 -1347 -23 -111 -60 -196 -110 -252 -73 -81
-78 -82 -358 -79 l-244 3 -39 31 c-54 44 -98 105 -123 171 -51 135 -50 115
-50 1474 l0 1269 -310 0 -310 0 0 -1297z"/>
<path d="M22610 9580 l0 -210 365 0 365 0 0 -1475 0 -1475 320 0 320 0 0 1475
0 1475 350 0 350 0 0 210 0 210 -1035 0 -1035 0 0 -210z"/>
<path d="M17544 6068 c15 -24 77 -130 139 -235 l112 -193 3433 3 3433 2 -1
224 c0 123 -3 228 -6 233 -3 4 -1609 8 -3570 8 l-3565 0 25 -42z"/>
</g>
</svg>
